# xmcd
#
# Track frame offsets:
#	183
#	30150
#	39853
#	63715
#	81650
#	122370
#	137128
#	150985
#	172763
#	186105
#	200173
#	220393
#	234668
#	259818
#	274648
#	301578
#	317195
#	333428
#
# Disc length: 4693
#
# Revision: 1
# Processed by: cddbd v1.5.1PL0 Copyright (c) Steve Scherf et al.
# Submitted via: OrangeCD 5.0
# Normalized: r0:DSETVAR1
#
DISCID=f6125312
DTITLE=Various Artist - Demon Blues
DYEAR=1900
DGENRE=Blues
TTITLE0=Joe Louis Walker - City Of Angels
TTITLE1=Phillip Walker - Hello My Darling
TTITLE2=George Thorogood and The Destroyers - The Sky Is Crying
TTITLE3=Hubert Sumlin - Just Like I Treat You
TTITLE4=Otis Rush - Gambler's Blues
TTITLE5=Duke Bobillard - Zot
TTITLE6=Professor Longhair - Junco Partner
TTITLE7=Earl King - Time For The Sun To Rise
TTITLE8=John Lee Hooker - I'm In The Mood
TTITLE9=John Hammond - Mother-In-Law Blues
TTITLE10=Rory Gallagher - Loanshark Blues
TTITLE11=Anson Funderburgh and The Rockets feat. Sam Myers - Tell Me What Have I Done Wrong?
TTITLE12=Ronnie Earl and The Broadcasters - Wayne's Blues
TTITLE13=Bobby Radcliffe - Going Home Tomorrow
TTITLE14=Screamin' Jay Hawkins - Ol' Man River
TTITLE15=Snooks Eaglin - Cheeta
TTITLE16=Dr. John - Honey Dripper
TTITLE17=Greg Piccolo - Pic's Gospel Groove
EXTD=
EXTT0=
EXTT1=
EXTT2=
EXTT3=
EXTT4=
EXTT5=
EXTT6=
EXTT7=
EXTT8=
EXTT9=
EXTT10=
EXTT11=
EXTT12=
EXTT13=
EXTT14=
EXTT15=
EXTT16=
EXTT17=
PLAYORDER=
